# xmcd
#
# Track frame offsets:
#	150
#	15440
#	34857
#	53527
#	69642
#	82185
#	99482
#	120245
#	133072
#	152132
#	179122
#
# Disc length: 2567 seconds
#
# Revision: 1
# Processed by: cddbd v1.5.2PL0 Copyright (c) Steve Scherf et al.
# Submitted via: audiograbber 1.83.01
#
DISCID=8e0a050b
DTITLE=Vince Gill - Breath of Heaven
DYEAR=1998
DGENRE=Country
TTITLE0=Winter Wonderland
TTITLE1=The Christmas Song
TTITLE2=O Little Town Of Bethlehem
TTITLE3=Silver Bells
TTITLE4=It's The Most Wonderful Time Of The Year
TTITLE5=Blue Christmas
TTITLE6=O Holy Night
TTITLE7=Let It Snow, Let It Snow, Let It Snow
TTITLE8=A Cradle In Bethlehem
TTITLE9=Breath Of Heaven (Mary's Song)
TTITLE10=O Come All Ye Faithful
EXTD=
EXTT0=
EXTT1=
EXTT2=
EXTT3=
EXTT4=
EXTT5=
EXTT6=
EXTT7=
EXTT8=
EXTT9=
EXTT10=
PLAYORDER=
